<?xml version="1.0" standalone="no"?>
<!DOCTYPE svg PUBLIC "-//W3C//DTD SVG 1.1//EN" "http://www.w3.org/Graphics/SVG/1.1/DTD/svg11.dtd" >
<svg xmlns="http://www.w3.org/2000/svg">
<metadata></metadata>
<defs>
<font id="ambassadorplussanuploadedfile" horiz-adv-x="1091" >
<font-face units-per-em="2048" ascent="1817" descent="-231" />
<missing-glyph horiz-adv-x="579" />
<glyph unicode="AE" horiz-adv-x="1454" d="M-10 0l712 1237h644v-29h-594v-549h548v-28h-548v-600h600v-31h-631v412h-461l-235 -412h-35zM279 440h442v768h-4z" />
<glyph unicode="ae" horiz-adv-x="1454" d="M-10 0l712 1237h644v-29h-594v-549h548v-28h-548v-600h600v-31h-631v412h-461l-235 -412h-35zM279 440h442v768h-4z" />
<glyph unicode="OE" horiz-adv-x="2097" d="M90 621q0 125 49 251q49 123 135 205q86 92 199 142q123 51 242 51q117 0 243 -51q109 -49 199 -142q78 -78 133 -205q4 -10 10.5 -31.5t8.5 -25.5h4l-2 422h671v-29h-643v-549h598v-28h-598v-600h652v-31h-680l2 422h-4q-16 -49 -19 -53q-49 -121 -133 -207 q-92 -94 -199 -139q-123 -53 -243.5 -53.5t-241.5 53.5q-111 45 -199 139q-90 90 -135 207q-49 121 -49 252zM121 621q0 -133 45 -242q47 -111 129 -197q74 -82 188 -135q131 -47 232 -47q104 0 231 47q102 47 191 135q84 90 127 197q47 113 47 242t-47 239 q-45 107 -127 199q-92 88 -191 131q-106 49 -231 49q-121 0 -232 -49q-111 -47 -188 -131q-84 -86 -129 -199q-45 -104 -45 -239z" />
<glyph unicode="oe" horiz-adv-x="2097" d="M90 621q0 125 49 251q49 123 135 205q86 92 199 142q123 51 242 51q117 0 243 -51q109 -49 199 -142q78 -78 133 -205q4 -10 10.5 -31.5t8.5 -25.5h4l-2 422h671v-29h-643v-549h598v-28h-598v-600h652v-31h-680l2 422h-4q-16 -49 -19 -53q-49 -121 -133 -207 q-92 -94 -199 -139q-123 -53 -243.5 -53.5t-241.5 53.5q-111 45 -199 139q-90 90 -135 207q-49 121 -49 252zM121 621q0 -133 45 -242q47 -111 129 -197q74 -82 188 -135q131 -47 232 -47q104 0 231 47q102 47 191 135q84 90 127 197q47 113 47 242t-47 239 q-45 107 -127 199q-92 88 -191 131q-106 49 -231 49q-121 0 -232 -49q-111 -47 -188 -131q-84 -86 -129 -199q-45 -104 -45 -239z" />
<glyph unicode="&#x2e;&#x2e;&#x2e;" horiz-adv-x="1175" d="M160 0v129h30v-129h-30zM573 0v129h29v-129h-29zM985 0v129h31v-129h-31z" />
<glyph horiz-adv-x="2048" />
<glyph horiz-adv-x="2048" />
<glyph unicode="&#xd;" horiz-adv-x="681" />
<glyph unicode=" "  horiz-adv-x="579" />
<glyph unicode="&#x09;" horiz-adv-x="579" />
<glyph unicode="&#xa0;" horiz-adv-x="579" />
<glyph unicode="!" horiz-adv-x="382" d="M176 0v129h31v-129h-31zM176 297v940h31v-940h-31z" />
<glyph unicode="&#x22;" horiz-adv-x="512" d="M145 823v414h31v-414h-31zM338 823v414h29v-414h-29z" />
<glyph unicode="#" horiz-adv-x="1040" d="M92 438v29h232l41 293h-224v28h230l57 449h31l-60 -449h310l57 449h31l-60 -449h211v-28h-217l-39 -293h207v-29h-215l-57 -438h-29l57 438h-309l-57 -438h-29l57 438h-225zM354 467h308l40 293h-311z" />
<glyph unicode="$" horiz-adv-x="1024" d="M98 319h31q0 -131 109 -223q113 -92 260 -96v635q-162 37 -248 90q-121 80 -121 217q-2 141 107 234q104 88 262 92v86h30v-86q154 0 258 -92q104 -94 103 -234h-31q2 129 -92 211q-88 82 -238 86v-582l4 -2h9q176 -35 278 -104q106 -80 107 -232q0 -141 -121 -247 q-121 -92 -277 -103v-86h-30v86q-160 10 -277 103q-123 106 -123 247zM158 942q0 -121 108 -192q96 -55 232 -84v573q-141 -2 -244 -86q-98 -86 -96 -211zM528 0q147 4 258 96q113 94 113 223q0 127 -98 209q-88 57 -266 99l-7 2v-629z" />
<glyph unicode="%" horiz-adv-x="1304" d="M90 975q0 57 21 106q18 47 57 88q41 41 84 62q49 20 104.5 20t104.5 -20q47 -23 86 -62q35 -37 55 -88q23 -55 23 -106q0 -53 -23 -109q-20 -47 -55 -88q-39 -39 -86 -57q-55 -23 -104.5 -23t-104.5 23q-45 18 -84 57q-39 41 -57 88q-20 49 -21 109zM121 975 q0 -47 16 -96q18 -45 51 -78q35 -35 76 -55.5t92 -20.5q49 0 93 20q41 20 75 56q33 33 51 78q18 47 18.5 96t-18.5 94q-20 51 -51 82q-33 33 -75 51q-44 21 -93 21q-51 0 -92 -21q-43 -18 -76 -51q-33 -35 -51 -82q-16 -49 -16 -94zM254 0l764 1237h35l-764 -1237h-35z M682 264q0 51 23 107q20 47 55 88q37 37 86 59q51 23 102 23q53 0 105 -23q49 -23 86 -59q35 -41 55 -88q23 -55 23 -107q0 -53 -23 -108q-20 -47 -55 -88q-37 -37 -86 -60q-56 -22 -105 -22q-51 0 -102 22q-49 23 -86 60q-35 41 -55 88q-23 55 -23 108zM713 264 q0 -35 16 -96q18 -45 53 -80q37 -37 74 -51q43 -21 92 -21q51 0 94 21q37 14 74 51t51 80q18 55 18.5 96t-18.5 96q-14 41 -51 78q-29 29 -74 54q-45 18 -94 18q-47 0 -92 -18q-45 -25 -74 -54q-35 -35 -53 -78q-16 -61 -16 -96z" />
<glyph unicode="&#x26;" horiz-adv-x="1134" d="M86 301q0 76 31 148q29 68 80 106q18 23 98 78q20 10 111 53q-10 14 -39 46t-48.5 56.5t-35.5 49.5q-61 98 -62 176q0 55 23 106q23 45 61 78q47 37 98 51q55 20 119 21q61 0 111 -19q45 -14 82 -49q33 -33 51 -80q18 -49 18 -104q0 -68 -32 -129q-33 -55 -82 -96 q-61 -47 -103 -66l-108 -53l411 -455q27 39 62 100q20 39 47 111q20 61 31 127q12 63 12 127h31q0 -66 -13 -131q-10 -59 -34 -133q-23 -59 -50 -117q-27 -47 -65 -104l176 -199h-39q-99 102 -160 178q-43 -53 -84 -86q-53 -43 -100 -65q-45 -25 -110.5 -41.5t-122.5 -16.5 q-74 0 -146 25q-70 25 -117 69q-53 49 -73 103q-29 63 -29 135zM117 301q0 -61 22 -123q23 -47 68 -92q45 -43 108 -63q68 -23 136 -23q63 0 114 14q54 12 107 37q53 29 96 66q37 27 80 84l-420 463q-61 -25 -115 -56q-61 -43 -98 -71q-57 -66 -72 -101q-27 -59 -26 -135z M252 1014q0 -70 61 -174q57 -79 123 -142q59 25 115 52q14 10 49 31.5t51 33.5q51 41 74 86q29 51 29 117q0 47 -16.5 92t-45.5 70q-29 29 -71 45q-41 14 -99 14q-59 0 -108 -14q-51 -18 -88 -49q-35 -29 -54 -70q-20 -39 -20 -92z" />
<glyph unicode="'" horiz-adv-x="321" d="M145 823v414h31v-414h-31z" />
<glyph unicode="(" horiz-adv-x="450" d="M98 623q0 100 23 206q20 98 65 195q37 88 103 168q47 59 84 90h45q-59 -47 -107 -108q-51 -63 -96 -162q-45 -92 -65 -189q-20 -94 -21 -200q0 -104 18 -203q20 -94 62 -180q35 -78 100 -164q48 -62 111 -119h-43q-41 37 -90 100q-59 76 -105 170q-41 90 -61 187 q-23 92 -23 209z" />
<glyph unicode=")" horiz-adv-x="450" d="M31 -43q53 45 112 119q57 76 101 164q43 113 59 180q20 94 21 203q0 98 -23 200q-23 100 -61 189q-43 90 -101 162q-53 66 -106 108h45q37 -31 84 -90q61 -78 102 -168q45 -100 66 -195q23 -106 22 -206q0 -117 -22 -209q-20 -96 -62 -187q-41 -94 -104 -170 q-49 -63 -90 -100h-43z" />
<glyph unicode="*" horiz-adv-x="714" d="M135 881l193 110l-193 111l15 24l192 -110v221h29v-221l192 112l15 -26l-193 -111l197 -110l-17 -27l-194 113v-226h-29v226l-192 -113z" />
<glyph unicode="+" horiz-adv-x="1050" d="M100 420v29h410v419h31v-419h409v-29h-409v-420h-31v420h-410z" />
<glyph unicode="," horiz-adv-x="436" d="M117 -186l108 338h31l-109 -338h-30z" />
<glyph unicode="-" horiz-adv-x="575" d="M135 420v29h305v-29h-305z" />
<glyph unicode="." horiz-adv-x="350" d="M159 0v129h31v-129h-31z" />
<glyph unicode="/" horiz-adv-x="741" d="M96 0l518 1237h33l-518 -1237h-33z" />
<glyph unicode="0" horiz-adv-x="1015" d="M104 621q0 127 20.5 231t65.5 207q47 104 125 155q86 55 193 56q98 0 192 -56q78 -53 125 -155q41 -102 66 -207q20 -104 20 -231q0 -125 -20 -234q-23 -102 -66 -203q-45 -100 -125 -155q-83 -60 -192 -60q-115 0 -193 60q-80 51 -125 155q-37 76 -65 203 q-20 109 -21 234zM135 621q0 -94 19 -228q25 -119 65 -196q39 -94 113 -146q82 -51 176 -51q98 0 176 51q68 43 115 146q37 84 61 196q20 92 20.5 227.5t-20.5 225.5q-20 104 -61 201q-47 96 -115 141q-74 51 -176 51q-98 0 -176 -51q-74 -47 -113 -141q-43 -90 -65 -201 q-18 -129 -19 -225z" />
<glyph unicode="1" horiz-adv-x="497" d="M8 1208v29h318v-1237h-29v1208h-289z" />
<glyph unicode="2" horiz-adv-x="931" d="M80 0v43l514 526q106 106 143 158q68 96 68 174q0 72 -27 133q-31 66 -71 107q-47 47 -107 71q-61 27 -133 27q-78 0 -141 -29q-61 -29 -103 -75q-45 -55 -69 -136q-25 -74 -25 -159h-27q0 90 23 170q25 80 78 143q41 55 110 84q76 33 154 33q72 0 143 -31 q68 -29 117 -78t78 -116.5t29 -143.5q0 -88 -70 -186q-31 -41 -148 -164l-505 -518v-2h727v-31h-758z" />
<glyph unicode="3" horiz-adv-x="935" d="M76 348v70h28v-70q0 -59 27 -135q27 -61 76 -111q53 -51 115 -73q68 -29 139 -29q70 0 137 29q59 25 113 73q49 49 75 111q27 59 27 135q0 78 -27 133q-27 61 -75 111q-51 47 -113 76q-70 27 -137 26h-94v31h102q55 0 102 18q53 23 84 58q37 35 60 82q18 47 18 98 q0 55 -18 100q-23 47 -60 82q-31 35 -84 58q-45 18 -102 18q-53 0 -102 -18q-53 -23 -84 -58q-33 -31 -58 -82q-20 -43 -20 -100v-25h-29v25q0 57 22.5 112.5t63.5 90.5q41 41 94 61q53 25 113 25q63 0 115 -25q51 -20 94 -61q39 -37 61 -90q25 -53 25 -113q0 -55 -25 -109 q-23 -53 -61 -92q-27 -23 -53 -41q-35 -18 -62 -26v-4q53 -12 90 -39q43 -25 76 -58q55 -53 84 -118q31 -72 31 -146q0 -76 -31 -147q-27 -66 -84 -121q-49 -49 -121 -80q-78 -31 -147 -31q-74 0 -152 31q-72 31 -121 80q-53 49 -82 121q-31 70 -30 147z" />
<glyph unicode="4" horiz-adv-x="905" d="M37 301v43l563 893h51v-905h207v-31h-207v-301h-30v301h-584zM68 332h553v876h-5l-548 -872v-4z" />
<glyph unicode="5" horiz-adv-x="980" d="M70 385v4h30v-4q0 -76 29 -149q31 -70 82 -121q57 -57 125 -84q72 -31 149 -31q72 0 150 31q70 27 123 84q55 55 84 121q31 78 30 149q0 74 -30 152q-31 70 -84 122q-55 55 -123 82q-78 31 -150 31q-51 0 -96 -12q-37 -8 -86 -33q-43 -23 -78 -55q-29 -29 -59 -70l-29 10 l123 625h569v-29h-546l-105 -542h2q18 25 51 49q27 20 60 37q41 23 92 39q51 12 102 12q74 0 162 -33q80 -37 133 -90q53 -57 88 -131q33 -90 33 -164q0 -72 -33 -162q-35 -74 -88 -131q-55 -55 -133 -88q-76 -35 -162 -35q-82 0 -161 35q-74 31 -131 88q-63 63 -91 131 q-33 74 -32 162z" />
<glyph unicode="6" horiz-adv-x="946" d="M66 383q0 68 20 123q18 61 51 110l424 621h37l-354 -516l2 -2q51 35 108 53q55 20 121 21q92 0 160 -33q74 -35 131 -88q57 -57 88 -131q33 -72 33 -158q0 -90 -33 -162q-31 -74 -88 -131q-57 -53 -131 -88q-84 -33 -160 -33q-70 0 -160 33q-74 35 -129 88 q-57 57 -88 131q-33 72 -32 162zM96 383q0 -88 29 -152q25 -61 82 -118q49 -53 121 -82q77 -31 147 -31q76 0 148 31q72 29 122 82q51 51 82 118q31 82 31 152t-31 147q-31 68 -82 119q-51 53 -122 82q-72 31 -148 31q-70 0 -147 -31q-72 -29 -121 -82q-57 -57 -82 -119 q-29 -59 -29 -147z" />
<glyph unicode="7" horiz-adv-x="811" d="M45 1208v29h764v-39l-643 -1198h-33l647 1204v4h-735z" />
<glyph unicode="8" horiz-adv-x="948" d="M90 348q0 74 31 146q31 70 82 118q37 37 80 60q41 27 92 39v4q-25 8 -60 26q-23 12 -49 39q-41 39 -63 92q-23 55 -23 109q0 57 23 113q20 51 63 90q41 41 94 61q53 25 115 25t113 -25q55 -23 94 -61q39 -37 61 -90q25 -53 25 -113q0 -55 -25 -109q-23 -53 -61 -92 q-33 -29 -51 -39q-35 -18 -60 -26v-4q53 -12 95 -39q39 -20 77 -60q55 -53 84 -118q31 -72 31 -146q0 -76 -31 -147q-27 -66 -84 -121q-49 -49 -120 -80q-78 -31 -148 -31q-74 0 -151 31q-72 31 -121 80q-53 49 -82 121q-31 70 -31 147zM119 348q0 -59 26 -135 q27 -61 76 -111q53 -51 115 -73q67 -29 139 -29q70 0 137 29q59 25 113 73q49 49 76 111q27 59 26 135q0 78 -26 133q-27 61 -76 111q-51 47 -113 76q-70 27 -137 26q-70 0 -139 -26q-63 -27 -115 -76q-49 -49 -76 -111q-27 -72 -26 -133zM209 981q0 -55 20 -98 q25 -51 58 -82q35 -35 84 -58q49 -18 104 -18q53 0 100 18q53 23 84 58q35 29 60 82q18 47 18 98q0 55 -18 100q-25 53 -60 82q-31 35 -84 58q-47 18 -100 18q-55 0 -104 -18q-53 -23 -84 -58q-33 -31 -58 -82q-20 -43 -20 -100z" />
<glyph unicode="9" horiz-adv-x="946" d="M59 856q0 92 33 160q31 74 88.5 131t128.5 88q90 33 160 33q76 0 160 -33q74 -31 131 -88t88 -131q33 -68 33 -160q0 -63 -19 -125q-23 -61 -55 -108l-422 -623h-35l352 518l-2 2q-55 -39 -106 -53q-59 -20 -125 -21q-74 0 -160 31q-74 35 -129 88q-55 55 -88 133 q-33 68 -33 158zM90 856.5q0 -92.5 29 -147.5q25 -63 82 -121q55 -55 121 -82q63 -31 147 -31q88 0 147 31q68 27 123 82q51 51 82 121q31 72 31 147.5t-30.5 147t-82 123t-123.5 81.5q-67 29 -147 29q-74 0 -147 -29q-72 -33 -121 -82q-55 -55 -82 -122q-29 -55 -29 -147.5 z" />
<glyph unicode=":" horiz-adv-x="321" d="M145 0v129h31v-129h-31zM145 737v131h31v-131h-31z" />
<glyph unicode=";" horiz-adv-x="475" d="M145 -186l109 338h31l-109 -338h-31zM252 737v131h27v-131h-27z" />
<glyph unicode="&#x3c;" horiz-adv-x="1067" d="M90 418v41l828 418v-33l-797 -404v-4l797 -403v-33z" />
<glyph unicode="=" horiz-adv-x="1126" d="M145 256v31h836v-31h-836zM145 582v28h836v-28h-836z" />
<glyph unicode="&#x3e;" horiz-adv-x="1067" d="M150 0v33l798 403v4l-798 404v33l827 -418v-41z" />
<glyph unicode="?" horiz-adv-x="923" d="M88 913q2 74 35 144q29 68 78 110q45 49 110 74q70 29 144 29q63 0 139 -29q68 -29 117 -78q47 -45 75 -110q29 -74 29 -142q0 -59 -18 -98q-10 -29 -49 -86q-37 -49 -64 -74l-68 -67q-43 -41 -49 -51q-23 -33 -37 -64q-16 -31 -22 -55q-8 -27 -8 -58v-61h-29v61 q0 33 6 66q10 31 25 61q39 59 43 66q49 55 51 57l66 66q39 35 63 71q31 47 43 78q18 47 18 88q0 70 -26 129q-29 61 -70 105q-41 39 -106 69q-61 25 -129 25t-131 -22q-57 -25 -105 -68q-43 -43 -72 -105q-24 -59 -28 -133zM471 0v129h29v-129h-29z" />
<glyph unicode="@" horiz-adv-x="1443" d="M100 629q0 117 52 250q55 123 145 202q92 92 211 142q127 51 254 51q117 0 229 -41q92 -37 176 -113q82 -78 129 -180q43 -92 43 -211q0 -156 -116 -303q-127 -156 -283 -156q-88 0 -117 54q-14 18 -14 65h-4q-47 -57 -96 -86q-70 -33 -125 -33q-94 0 -150 109 q-33 68 -33 153.5t35 165.5q41 86 76 123q45 53 98 88q53 33 111 43q66 4 104 -14q35 -14 64 -43q33 -41 43 -104h4l49 139l27 -8l-158 -445q-16 -45 -18 -71q-4 -39 10 -68q23 -39 94 -39q147 0 262 147q109 135 109 283q0 115 -43 199q-35 92 -119 170q-86 74 -168 106 q-96 39 -219 39q-135 0 -244 -47q-115 -51 -203 -133q-88 -92 -135 -197q-49 -111 -49 -237q0 -137 45 -246q47 -119 127 -205q78 -86 184 -135q115 -49 234 -49q80 0 166 22q92 25 157 60q84 45 132 92q61 55 98 121l24 -17q-33 -61 -102 -127q-72 -61 -137 -96 q-76 -41 -166 -61q-90 -23 -172 -23q-133 0 -244 53q-115 49 -194 140q-86 92 -136 213q-47 123 -47 258zM432 532q0 -80 31 -143q47 -90 121 -90q53 0 110 31q53 31 92 82q31 42 39 75l66 179q16 49 16 82q4 76 -41 126q-23 23 -51 35q-43 20 -92 13q-51 -10 -96 -37 q-53 -31 -92 -80q-39 -47 -70 -119q-33 -72 -33 -154z" />
<glyph unicode="A" d="M2 0l526 1237h43l512 -1237h-30l-170 412h-672l-176 -412h-33zM221 440h649l-317 768h-4z" />
<glyph unicode="B" horiz-adv-x="980" d="M172 0v1237h360q72 0 117 -23q57 -25 98 -65.5t64 -95.5q25 -57 25 -119t-25 -119q-23 -57 -63 -94q-23 -23 -54 -43q-30 -19 -59 -29v-4q29 -6 78 -33q39 -25 65 -51q45 -45 70 -102q27 -61 26 -129q0 -72 -26 -127q-25 -61 -70 -107q-49 -49 -106 -69q-55 -27 -127 -27 h-373zM203 31h342q61 0 117 22q51 20 94 66q43 41 65 94q23 55 23 116.5t-23 116.5q-23 53 -65.5 96.5t-93.5 63.5q-51 25 -117 25h-342v-600zM203 659h329q53 0 109 23q49 23 86 57q39 43 59 88q21 48 21 109q0 58 -21 104q-20 45 -59 88q-37 35 -86 58q-56 22 -109 22 h-329v-549z" />
<glyph unicode="C" horiz-adv-x="1347" d="M90 621q0 125 49 251q49 123 135 205q86 92 199 142q123 51 242 51q117 0 243 -51q109 -49 199 -142q63 -68 103 -141h-31q-41 63 -92 123q-92 88 -191 131q-106 49 -231 49q-121 0 -232 -49q-111 -47 -188 -131q-84 -86 -129 -199q-45 -104 -45 -239q0 -133 45 -242 q47 -111 129 -197q74 -82 188 -135q131 -47 232 -47q104 0 231 47q102 47 191 135q47 49 88 117h32q-41 -76 -100 -137q-92 -94 -199 -139q-124 -53 -244 -53q-1 0 -2 -1q-119 0 -239 54q-111 45 -199 139q-90 90 -135 207q-49 121 -49 252z" />
<glyph unicode="D" horiz-adv-x="1230" d="M172 2v1235h426q135 0 227 -45q96 -37 164 -119q66 -74 107 -201q34 -110 34 -243v-8q0 -137 -40 -254q-39 -111 -119 -199q-78 -82 -183 -123q-117 -43 -243 -43h-373zM203 33h342q135 0 231 39q94 37 174 116q72 74 113 189q39 104 39 244q0 127 -35 241 q-25 98 -98 193q-72 78 -156 110q-92 41 -215 41h-395v-1173z" />
<glyph unicode="E" horiz-adv-x="958" d="M172 0v1237h672v-29h-641v-549h598v-28h-598v-600h649v-31h-680z" />
<glyph unicode="F" horiz-adv-x="854" d="M172 0v1237h608v-29h-577v-569h512v-29h-512v-610h-31z" />
<glyph unicode="G" horiz-adv-x="1423" d="M90 621q0 125 49 251q49 123 135 205q86 92 199 142q123 51 242 51q117 0 243 -51q109 -49 199 -142q70 -74 111 -157h-31q-45 82 -100 139q-92 88 -191 131q-106 49 -231 49q-121 0 -232 -49q-111 -47 -188 -131q-84 -86 -129 -199q-45 -104 -45 -239q0 -133 45 -242 q47 -111 129 -197q74 -82 188 -135q131 -47 232 -47q104 0 231 47q102 47 191 135q84 90 127 197q29 74 41 145h-635v31h665q-2 -68 -47 -186q-43 -113 -131 -207q-94 -94 -199 -139q-122 -54 -243 -54t-242 54q-111 45 -199 139q-90 90 -135 207q-49 121 -49 252z" />
<glyph unicode="H" horiz-adv-x="1191" d="M172 0v1237h31v-578h786v578h31v-1237h-31v631h-786v-631h-31z" />
<glyph unicode="I" horiz-adv-x="374" d="M172 0v1237h31v-1237h-31z" />
<glyph unicode="J" horiz-adv-x="833" d="M49 299h31q0 -68 20 -117q23 -57 62 -96q41 -41 90 -61q49 -25 108 -25q57 0 111 25q51 23 90 61q41 41 60 96q22 45 22 111v6v938h31v-938q0 -68 -25 -129q-25 -55 -65 -104q-45 -45 -101 -70q-55 -27 -123 -27q-66 0 -120 27q-59 25 -99 70q-47 45 -67 104 q-25 61 -25 129z" />
<glyph unicode="K" horiz-adv-x="935" d="M172 0v1237h31v-758l645 758h41l-461 -539l490 -698h-35l-475 676l-205 -242v-434h-31z" />
<glyph unicode="L" horiz-adv-x="794" d="M172 0v1237h31v-1206h545v-31h-576z" />
<glyph unicode="M" horiz-adv-x="1605" d="M172 0v1237h51l580 -1194h2l577 1194h52v-1237h-29v1208h-2l-586 -1208h-29l-583 1208h-2v-1208h-31z" />
<glyph unicode="N" horiz-adv-x="1286" d="M172 0v1237h47l860 -1206h4v1206h31v-1237h-47l-862 1208h-2v-1208h-31z" />
<glyph unicode="O" horiz-adv-x="1429" d="M90 621q0 125 49 251q49 123 135 205q86 92 199 142q123 51 242 51q117 0 243 -51q109 -49 199 -142q78 -78 133 -205q49 -119 49 -251q0 -137 -49 -252q-49 -121 -133 -207q-92 -94 -199 -139q-124 -53 -244 -53q-1 0 -2 -1q-119 0 -239 54q-111 45 -199 139 q-90 90 -135 207q-49 121 -49 252zM121 621q0 -133 45 -242q47 -111 129 -197q74 -82 188 -135q131 -47 232 -47q104 0 231 47q102 47 191 135q84 90 127 197q47 113 47 242t-47 239q-45 107 -127 199q-92 88 -191 131q-106 49 -231 49q-121 0 -232 -49q-111 -47 -188 -131 q-84 -86 -129 -199q-45 -104 -45 -239z" />
<glyph unicode="P" horiz-adv-x="944" d="M172 0v1237h375q74 0 135 -25q68 -29 113 -71q47 -47 75 -109q27 -59 27 -133q0 -70 -27 -129q-29 -61 -75 -108q-45 -43 -113 -72q-68 -27 -135 -27h-344v-563h-31zM203 594h344q68 0 125 24q57 20 102 66q41 39 70 98q25 52 25 114q0 65 -25 124q-29 57 -70 98 q-51 43 -102 66q-59 24 -120 24h-5h-344v-614z" />
<glyph unicode="Q" horiz-adv-x="1437" d="M90 621q0 125 49 251q49 123 135 205q86 92 199 142q123 51 242 51q117 0 243 -51q109 -49 199 -142q78 -78 133 -205q49 -119 49 -251q0 -137 -49 -252q-49 -121 -133 -207q-57 -59 -127 -105q2 0 9.5 -5t11.5 -7q8 -4 24.5 -15.5t24.5 -17.5l53 -30q8 -4 53 -25 q35 -14 68 -25q45 -12 72 -14l-5 -31q-16 2 -75 17q-39 12 -72 26q-35 14 -55 27q-8 4 -17.5 9t-20.5 11.5t-18 10.5q-8 4 -24.5 15t-24.5 17q-23 12 -35 23q-20 -12 -41 -20q-123 -53 -244 -53q-1 -1 -2 -1q-119 0 -239 54q-111 45 -199 139q-90 90 -135 207 q-49 121 -49 252zM121 621q0 -133 45 -242q47 -111 129 -197q30 -35 59 -55q45 23 101 39q68 20 116 22q45 3 75 3q15 0 26 -1q33 -2 94 -14q43 -8 94 -29q12 -4 30.5 -12t34 -14t29.5 -15q14 -10 47 -30q76 45 136 106q84 90 127 197q47 113 47 242t-47 239 q-45 106 -127 199q-92 88 -191 131q-106 49 -231 49q-121 0 -232 -49q-111 -47 -188 -131q-84 -86 -129 -199q-45 -104 -45 -239zM381 109q47 -35 102 -62q131 -47 232 -47q104 0 231 47q13 8 27 12q-6 4 -16.5 10.5t-16.5 10.5q-55 29 -90 41q-66 23 -90 26q-39 8 -90 13 q-24 2 -48 2t-49 -2q-78 -12 -110 -23q-49 -16 -82 -28z" />
<glyph unicode="R" horiz-adv-x="1089" d="M172 0v1237h440q74 0 136 -25q68 -29 112 -71q49 -53 76 -109q29 -63 29 -133q0 -66 -29 -129q-27 -59 -76 -108q-45 -43 -112 -72q-61 -25 -115 -27l399 -563h-37l-399 563h-393v-563h-31zM203 594h409q63 0 123 24q57 20 105 66q45 41 67 98q27 53 27 117q0 68 -27 121 q-23 55 -67 98q-49 41 -105 66q-49 24 -117 24h-6h-409v-614z" />
<glyph unicode="S" horiz-adv-x="1001" d="M86 319h31q0 -133 110 -223q109 -96 273 -96q166 0 274 96q113 92 113 223q0 127 -99 209q-88 57 -266 99q-190 39 -282 98q-121 78 -123 217q0 143 106 234q117 94 283 94q162 0 268 -94q104 -94 103 -234h-31v5q0 125 -92 206q-92 86 -248 86q-160 0 -264 -86 q-99 -86 -97 -211q0 -121 109 -192q92 -55 274 -95q176 -35 279 -104q108 -81 108 -229q0 -144 -120 -250q-129 -102 -295 -103q-172 0 -291 103q-123 106 -123 247z" />
<glyph unicode="T" horiz-adv-x="858" d="M51 1208v29h756v-29h-363v-1208h-28v1208h-365z" />
<glyph unicode="U" horiz-adv-x="1097" d="M158 375v862h30v-862q0 -82 27 -150q29 -66 78 -119q53 -53 115 -79q63 -31 141 -31t141 31q63 27 113 79q53 53 80 119q29 82 28 150v862h29v-862q0 -78 -31 -160q-27 -72 -84 -129q-51 -55 -123 -86q-72 -33 -153.5 -33t-153.5 33q-72 31 -123 86q-57 57 -84 129 q-31 82 -30 160z" />
<glyph unicode="V" horiz-adv-x="1083" d="M-2 1237h33l514 -1206h4l500 1206h30l-512 -1237h-43z" />
<glyph unicode="W" horiz-adv-x="1531" d="M45 1237h31l336 -1206h2l340 1206h26l338 -1206h4l334 1206h33l-344 -1237h-47l-328 1174h-4l-332 -1174h-47z" />
<glyph unicode="X" horiz-adv-x="940" d="M20 0l433 637l-408 600h35l389 -578h4l391 578h37l-412 -602l429 -635h-35l-410 610h-4l-412 -610h-37z" />
<glyph unicode="Y" horiz-adv-x="874" d="M0 1237h35l399 -678h4l402 678h34l-421 -713v-524h-31v524z" />
<glyph unicode="Z" horiz-adv-x="903" d="M37 0v43l776 1161v4h-731v29h760v-41l-774 -1163v-2h782v-31h-813z" />
<glyph unicode="[" horiz-adv-x="423" d="M170 -43v1325h182v-31h-151v-1263h151v-31h-182z" />
<glyph unicode="\" horiz-adv-x="741" d="M94 1237h33l518 -1237h-33z" />
<glyph unicode="]" horiz-adv-x="423" d="M72 -12h151v1263h-151v31h182v-1325h-182v31z" />
<glyph unicode="^" horiz-adv-x="835" d="M102 653l297 584h39l295 -584h-33l-280 555h-4l-281 -555h-33z" />
<glyph unicode="_" horiz-adv-x="849" d="M0 -166h850v-31h-850v31z" />
<glyph unicode="`" horiz-adv-x="466" d="M72 1577h41l221 -250h-41z" />
<glyph unicode="a" d="M2 0l526 1237h43l512 -1237h-30l-170 412h-672l-176 -412h-33zM221 440h649l-317 768h-4z" />
<glyph unicode="b" horiz-adv-x="980" d="M172 0v1237h360q72 0 117 -23q57 -25 98 -65.5t64 -95.5q25 -57 25 -119t-25 -119q-23 -57 -63 -94q-23 -23 -54 -43q-30 -19 -59 -29v-4q29 -6 78 -33q39 -25 65 -51q45 -45 70 -102q27 -61 26 -129q0 -72 -26 -127q-25 -61 -70 -107q-49 -49 -106 -69q-55 -27 -127 -27 h-373zM203 31h342q61 0 117 22q51 20 94 66q43 41 65 94q23 55 23 116.5t-23 116.5q-23 53 -65.5 96.5t-93.5 63.5q-51 25 -117 25h-342v-600zM203 659h329q53 0 109 23q49 23 86 57q39 43 59 88q21 48 21 109q0 58 -21 104q-20 45 -59 88q-37 35 -86 58q-56 22 -109 22 h-329v-549z" />
<glyph unicode="c" horiz-adv-x="1347" d="M90 621q0 125 49 251q49 123 135 205q86 92 199 142q123 51 242 51q117 0 243 -51q109 -49 199 -142q63 -68 103 -141h-31q-41 63 -92 123q-92 88 -191 131q-106 49 -231 49q-121 0 -232 -49q-111 -47 -188 -131q-84 -86 -129 -199q-45 -104 -45 -239q0 -133 45 -242 q47 -111 129 -197q74 -82 188 -135q131 -47 232 -47q104 0 231 47q102 47 191 135q47 49 88 117h32q-41 -76 -100 -137q-92 -94 -199 -139q-124 -53 -244 -53q-1 0 -2 -1q-119 0 -239 54q-111 45 -199 139q-90 90 -135 207q-49 121 -49 252z" />
<glyph unicode="d" horiz-adv-x="1230" d="M172 2v1235h426q135 0 227 -45q96 -37 164 -119q66 -74 107 -201q34 -110 34 -243v-8q0 -137 -40 -254q-39 -111 -119 -199q-78 -82 -183 -123q-117 -43 -243 -43h-373zM203 33h342q135 0 231 39q94 37 174 116q72 74 113 189q39 104 39 244q0 127 -35 241 q-25 98 -98 193q-72 78 -156 110q-92 41 -215 41h-395v-1173z" />
<glyph unicode="e" horiz-adv-x="958" d="M172 0v1237h672v-29h-641v-549h598v-28h-598v-600h649v-31h-680z" />
<glyph unicode="f" horiz-adv-x="854" d="M172 0v1237h608v-29h-577v-569h512v-29h-512v-610h-31z" />
<glyph unicode="g" horiz-adv-x="1423" d="M90 621q0 125 49 251q49 123 135 205q86 92 199 142q123 51 242 51q117 0 243 -51q109 -49 199 -142q70 -74 111 -157h-31q-45 82 -100 139q-92 88 -191 131q-106 49 -231 49q-121 0 -232 -49q-111 -47 -188 -131q-84 -86 -129 -199q-45 -104 -45 -239q0 -133 45 -242 q47 -111 129 -197q74 -82 188 -135q131 -47 232 -47q104 0 231 47q102 47 191 135q84 90 127 197q29 74 41 145h-635v31h665q-2 -68 -47 -186q-43 -113 -131 -207q-94 -94 -199 -139q-122 -54 -243 -54t-242 54q-111 45 -199 139q-90 90 -135 207q-49 121 -49 252z" />
<glyph unicode="h" horiz-adv-x="1191" d="M172 0v1237h31v-578h786v578h31v-1237h-31v631h-786v-631h-31z" />
<glyph unicode="i" horiz-adv-x="374" d="M172 0v1237h31v-1237h-31z" />
<glyph unicode="j" horiz-adv-x="833" d="M49 299h31q0 -68 20 -117q23 -57 62 -96q41 -41 90 -61q49 -25 108 -25q57 0 111 25q51 23 90 61q41 41 60 96q22 45 22 111v6v938h31v-938q0 -68 -25 -129q-25 -55 -65 -104q-45 -45 -101 -70q-55 -27 -123 -27q-66 0 -120 27q-59 25 -99 70q-47 45 -67 104 q-25 61 -25 129z" />
<glyph unicode="k" horiz-adv-x="935" d="M172 0v1237h31v-758l645 758h41l-461 -539l490 -698h-35l-475 676l-205 -242v-434h-31z" />
<glyph unicode="l" horiz-adv-x="794" d="M172 0v1237h31v-1206h545v-31h-576z" />
<glyph unicode="m" horiz-adv-x="1605" d="M172 0v1237h51l580 -1194h2l577 1194h52v-1237h-29v1208h-2l-586 -1208h-29l-583 1208h-2v-1208h-31z" />
<glyph unicode="n" horiz-adv-x="1286" d="M172 0v1237h47l860 -1206h4v1206h31v-1237h-47l-862 1208h-2v-1208h-31z" />
<glyph unicode="o" horiz-adv-x="1429" d="M90 621q0 125 49 251q49 123 135 205q86 92 199 142q123 51 242 51q117 0 243 -51q109 -49 199 -142q78 -78 133 -205q49 -119 49 -251q0 -137 -49 -252q-49 -121 -133 -207q-92 -94 -199 -139q-124 -53 -244 -53q-1 0 -2 -1q-119 0 -239 54q-111 45 -199 139 q-90 90 -135 207q-49 121 -49 252zM121 621q0 -133 45 -242q47 -111 129 -197q74 -82 188 -135q131 -47 232 -47q104 0 231 47q102 47 191 135q84 90 127 197q47 113 47 242t-47 239q-45 107 -127 199q-92 88 -191 131q-106 49 -231 49q-121 0 -232 -49q-111 -47 -188 -131 q-84 -86 -129 -199q-45 -104 -45 -239z" />
<glyph unicode="p" horiz-adv-x="944" d="M172 0v1237h375q74 0 135 -25q68 -29 113 -71q47 -47 75 -109q27 -59 27 -133q0 -70 -27 -129q-29 -61 -75 -108q-45 -43 -113 -72q-68 -27 -135 -27h-344v-563h-31zM203 594h344q68 0 125 24q57 20 102 66q41 39 70 98q25 52 25 114q0 66 -25 124q-29 57 -70 98 q-51 43 -102 66q-59 24 -120 24h-5h-344v-614z" />
<glyph unicode="q" horiz-adv-x="1437" d="M90 621q0 125 49 251q49 123 135 205q86 92 199 142q123 51 242 51q117 0 243 -51q109 -49 199 -142q78 -78 133 -205q49 -119 49 -251q0 -137 -49 -252q-49 -121 -133 -207q-57 -59 -127 -105q2 0 9.5 -5t11.5 -7q8 -4 24.5 -15.5t24.5 -17.5l53 -30q8 -4 53 -25 q35 -14 68 -25q45 -12 72 -14l-5 -31q-16 2 -75 17q-39 12 -72 26q-35 14 -55 27q-8 4 -17.5 9t-20.5 11.5t-18 10.5q-8 4 -24.5 15t-24.5 17q-23 12 -35 23q-20 -12 -41 -20q-123 -53 -244 -53q-1 -1 -2 -1q-119 0 -239 54q-111 45 -199 139q-90 90 -135 207 q-49 121 -49 252zM121 621q0 -133 45 -242q47 -111 129 -197q30 -35 59 -55q45 23 101 39q68 20 116 22q45 3 75 3q15 0 26 -1q33 -2 94 -14q43 -8 94 -29q12 -4 30.5 -12t34 -14t29.5 -15q14 -10 47 -30q76 45 136 106q84 90 127 197q47 113 47 242t-47 239 q-45 106 -127 199q-92 88 -191 131q-106 49 -231 49q-121 0 -232 -49q-111 -47 -188 -131q-84 -86 -129 -199q-45 -104 -45 -239zM381 109q47 -35 102 -62q131 -47 232 -47q104 0 231 47q13 8 27 12q-6 4 -16.5 10.5t-16.5 10.5q-55 29 -90 41q-66 23 -90 26q-39 8 -90 13 q-24 2 -48 2t-49 -2q-78 -12 -110 -23q-49 -16 -82 -28z" />
<glyph unicode="r" horiz-adv-x="1089" d="M172 0v1237h440q74 0 136 -25q68 -29 112 -71q49 -53 76 -109q29 -63 29 -133q0 -66 -29 -129q-27 -59 -76 -108q-45 -43 -112 -72q-61 -25 -115 -27l399 -563h-37l-399 563h-393v-563h-31zM203 594h409q63 0 123 24q57 20 105 66q45 41 67 98q27 53 27 117q0 68 -27 121 q-23 55 -67 98q-49 41 -105 66q-49 24 -117 24h-6h-409v-614z" />
<glyph unicode="s" horiz-adv-x="1001" d="M86 319h31q0 -133 110 -223q109 -96 273 -96q166 0 274 96q113 92 113 223q0 127 -99 209q-88 57 -266 99q-190 39 -282 98q-121 78 -123 217q0 143 106 234q117 94 283 94q162 0 268 -94q104 -94 103 -234h-31v5q0 125 -92 206q-92 86 -248 86q-160 0 -264 -86 q-99 -86 -97 -211q0 -121 109 -192q92 -55 274 -95q176 -35 279 -104q108 -81 108 -229q0 -144 -120 -250q-129 -102 -295 -103q-172 0 -291 103q-123 106 -123 247z" />
<glyph unicode="t" horiz-adv-x="858" d="M51 1208v29h756v-29h-363v-1208h-28v1208h-365z" />
<glyph unicode="u" horiz-adv-x="1097" d="M158 375v862h30v-862q0 -82 27 -150q29 -66 78 -119q53 -53 115 -79q63 -31 141 -31t141 31q63 27 113 79q53 53 80 119q29 82 28 150v862h29v-862q0 -78 -31 -160q-27 -72 -84 -129q-51 -55 -123 -86q-72 -33 -153.5 -33t-153.5 33q-72 31 -123 86q-57 57 -84 129 q-31 82 -30 160z" />
<glyph unicode="v" horiz-adv-x="1083" d="M-2 1237h33l514 -1206h4l500 1206h30l-512 -1237h-43z" />
<glyph unicode="w" horiz-adv-x="1531" d="M45 1237h31l336 -1206h2l340 1206h26l338 -1206h4l334 1206h33l-344 -1237h-47l-328 1174h-4l-332 -1174h-47z" />
<glyph unicode="x" horiz-adv-x="940" d="M20 0l433 637l-408 600h35l389 -578h4l391 578h37l-412 -602l429 -635h-35l-410 610h-4l-412 -610h-37z" />
<glyph unicode="y" horiz-adv-x="874" d="M0 1237h35l399 -678h4l402 678h34l-421 -713v-524h-31v524z" />
<glyph unicode="z" horiz-adv-x="903" d="M37 0v43l776 1161v4h-731v29h760v-41l-774 -1163v-2h782v-31h-813z" />
<glyph unicode="{" horiz-adv-x="413" d="M86 598v41q20 6 37 25q14 18 22 43q10 18 25 86q0 4 3 33.5t3 41.5v240q0 43 6 74q6 35 21 55q12 20 37 33q23 12 53 12h45v-31h-45q-25 0 -39 -8q-16 -6 -29 -22q-12 -23 -14 -47q-6 -27 -6 -66v-240q0 -49 -6 -82q-14 -70 -25 -92q-12 -25 -24 -43q-14 -18 -33 -28v-5 q20 -16 33 -30q8 -12 24 -41q10 -20 25 -94q6 -31 6 -80v-244q0 -35 6 -63q2 -20 14 -46q12 -14 29 -24q14 -8 39 -8h45v-31h-45q-33 0 -53 12q-25 8 -37 35q-14 20 -21 51q-6 35 -6 74v244q0 8 -3 35.5t-3 40.5q-16 70 -25 86q-8 20 -22 40q-16 16 -37 23z" />
<glyph unicode="|" horiz-adv-x="358" d="M164 -125v1489h31v-1489h-31z" />
<glyph unicode="}" horiz-adv-x="413" d="M76 -12h45q25 0 39 8q16 10 28 24q12 25 15 46q6 28 6 63v244q0 49 6 80q4 49 25 94q10 25 24 41q10 14 33 30v5q-18 10 -33 28q-14 18 -24 43q-23 47 -25 92q-6 33 -6 82v240q0 39 -6 66q-2 25 -15 47q-12 16 -28 22q-14 8 -39 8h-45v31h45q31 0 53 -12q25 -12 37 -33 q14 -20 20 -55q6 -31 7 -74v-240q0 -12 3 -41.5t3 -33.5q14 -68 24 -86q8 -25 23 -43q16 -18 37 -25v-41q-20 -6 -37 -23q-14 -20 -23 -40q-8 -16 -24 -86q0 -12 -3 -40t-3 -36v-244q0 -39 -7 -74q-6 -31 -20 -51q-12 -27 -37 -35q-23 -12 -53 -12h-45v31z" />
<glyph unicode="~" horiz-adv-x="1040" d="M143 383q31 53 72 82q52 37 109 35q80 -2 202 -66q115 -59 183 -59q55 0 90 28q10 8 69 72l23 -14q-41 -61 -74 -80q-53 -37 -108 -37q-76 2 -195 63.5t-192 61.5q-45 2 -89 -27q-29 -25 -65 -73z" />
<glyph unicode="&#xa1;" horiz-adv-x="378" d="M174 0v942h31v-942h-31zM174 1108v129h31v-129h-31z" />
<glyph unicode="&#xa2;" horiz-adv-x="1028" d="M100 621q0 90 35 176q33 82 92 143q63 63 142 98q59 31 153 35v86h29v-86q88 -4 158 -35q80 -35 137 -98q47 -47 74 -100h-33q-27 45 -62 80q-55 59 -129 92q-84 32 -145 32v-849q70 2 145 32q74 35 129 92q31 31 58 74h32q-29 -51 -69 -94q-53 -59 -137 -96 q-74 -37 -158 -37v-86h-29v86q-84 0 -153 37q-68 23 -142 96q-59 66 -92 145q-35 80 -35 177zM131 621q0 -98 31 -166q31 -78 88 -136q57 -57 129 -92q71 -30 143 -30v847q-74 -2 -143 -32q-74 -33 -129 -92q-57 -57 -88 -136q-31 -70 -31 -163z" />
<glyph unicode="&#xa3;" horiz-adv-x="1079" d="M100 608v31h140q-16 53 -29 115q-14 76 -14 131q0 82 28 157q29 72 78 117q51 53 123 82q74 29 156 29q70 0 135 -25q66 -23 110 -65q45 -37 82 -101q29 -57 45 -135l-30 -6q-10 63 -41 127q-31 55 -74 92q-45 39 -102 62q-55 20 -125 20q-78 0 -144 -25 q-68 -27 -116 -73q-45 -45 -70 -111q-27 -61 -27 -145q0 -68 15 -127q2 -8 30 -119h377v-31h-366q23 -94 24 -100q14 -59 14 -129q0 -63 -12 -119q-12 -53 -37 -106q-48 -76 -75 -105l2 -2q98 33 180 33q70 0 149 -23q8 -2 154 -45q53 -12 96 -12q76 0 189 43l12 -27 q-125 -47 -201 -47q-43 0 -100 15q-29 6 -83 22.5t-75 22.5q-68 20 -141 20q-96 4 -174 -29q-41 -14 -84 -36l-17 24q43 31 82 74q35 37 58 86q25 45 37 98t12 113q0 49 -15 125q-8 35 -28 104h-148z" />
<glyph unicode="&#xa5;" horiz-adv-x="1046" d="M86 1237h35l399 -678h4l402 678h35l-400 -672h309v-28h-323l-8 -13v-182h331v-31h-331v-311h-31v311h-334v31h334v182l-8 13h-326v28h307z" />
<glyph unicode="&#xa6;" horiz-adv-x="374" d="M172 -125v594h31v-594h-31zM172 768v596h31v-596h-31z" />
<glyph unicode="&#xa7;" horiz-adv-x="940" d="M98 547q0 43 13 82q12 43 32 73q18 27 52 60q23 23 61 47q-37 33 -53 70q-20 35 -21 92q0 61 23 119q25 57 65 94q43 39 103 61q59 25 127 25q66 0 121 -25q55 -20 98 -61q39 -39 61 -94q23 -57 23 -119h-31q0 57 -18 106q-18 51 -56 84q-37 37 -88 60q-53 18 -110 18 q-61 0 -115 -18q-51 -20 -94 -60q-37 -31 -60 -84q-20 -49 -18 -106q0 -57 25 -94q23 -37 65 -68q37 -27 96 -55q23 -10 62 -24.5t53 -20.5q98 -41 115 -50q84 -45 102 -59q55 -43 74 -82q29 -51 29 -115q0 -33 -11 -77q-8 -35 -28 -72q-14 -29 -41 -55q-18 -23 -49 -47 q47 -41 65 -74q27 -49 27 -98q4 -66 -25 -119q-25 -55 -70 -94q-47 -45 -110 -66q-61 -20 -135 -20q-70 0 -131 20q-57 23 -103 66q-45 39 -69 94q-20 41 -21 119l29 -3q-2 -49 20 -106q25 -51 60 -84q37 -35 96 -57q53 -20 119 -21q70 0 125 21q63 23 100 57q41 35 63 84 q23 57 21 109q0 49 -27 92q-29 45 -69 67q-23 16 -105 56q-23 8 -63.5 23t-59.5 22l-125 49q-66 27 -108 59q-61 47 -80 82q-31 57 -31 117zM129 547q0 -59 24.5 -100t71.5 -74q31 -23 105 -58q23 -10 66 -25.5t57 -21.5q20 -8 59 -23.5t59 -23.5q45 -16 107 -51 q37 29 51 43q18 20 39 55q16 29 27 64q10 41 10 71q0 51 -27 101q-18 33 -65 74q-51 37 -99 57l-112 47q-8 4 -50 19.5t-63 25.5q-57 23 -108 61q-37 -20 -62 -45q-29 -27 -49 -57q-23 -35 -31 -65q-10 -41 -10 -74z" />
<glyph unicode="&#xa8;" horiz-adv-x="454" d="M102 1343v132h31v-132h-31zM322 1343v132h30v-132h-30z" />
<glyph unicode="&#xa9;" horiz-adv-x="1501" d="M102 621q0 127 52 251q51 121 139 205q88 90 205 142q137 51 254 51q125 0 252 -51q117 -47 206 -142q90 -90 140 -205q51 -125 51 -251q0 -133 -51 -252q-47 -113 -140 -209q-94 -94 -206 -137q-123 -53 -252 -54q-121 0 -254 54q-113 45 -205 137q-90 90 -139 209 q-51 119 -52 252zM133 621q0 -135 47 -242q51 -117 135 -197q82 -86 195 -135q133 -47 241.5 -47t241.5 47q117 51 197 135q84 88 133 197q49 119 49 242q0 121 -49 239q-47 111 -133 199q-84 84 -197 131q-112 49 -241 49t-242 -49q-109 -45 -195 -131q-84 -84 -135 -199 q-47 -106 -47 -239zM385 621q0 76 29 151q29 72 80 123q53 59 120 86q78 31 147.5 31t147.5 -31q68 -29 119 -86q37 -35 64 -84h-33q-18 29 -51 66q-47 51 -111 77q-59 27 -135 27t-135.5 -26.5t-110.5 -77.5q-47 -51 -76 -117q-27 -70 -26 -139q0 -68 26 -144 q29 -63 76 -112q47 -53 111 -78q68 -31 135 -31t135 31q66 27 111 78q31 31 49 59h33q-23 -43 -62 -82q-55 -55 -119 -84q-78 -31 -147.5 -31t-147.5 31q-68 31 -120 84q-51 51 -80 127q-29 68 -29 152z" />
<glyph unicode="&#xaa;" horiz-adv-x="829" d="M106 971q0 57 23 114.5t61 96.5q43 43 93 63q53 25 112 25t111 -25q49 -20 92 -63q31 -33 55 -80h2l-2 135h29v-535h-29l2 136h-2q-25 -47 -55 -80q-43 -43 -92 -64q-51 -25 -111 -24q-59 0 -112 24q-49 20 -93 64q-39 39 -61 96q-23 55 -23 117zM137 971q0 -57 19 -107 q23 -51 57 -86q31 -33 82 -57q43 -21 100 -21q55 0 99 21q49 23 84 57q33 37 55 86q20 47 20 107q0 55 -20 102q-18 49 -55 86q-31 37 -84 60q-43 20 -99 20q-57 0 -100 -20q-51 -23 -82 -60q-35 -35 -57 -86q-18 -49 -19 -102z" />
<glyph unicode="&#xab;" horiz-adv-x="655" d="M121 451v22l203 268v-47l-172 -229v-4l172 -230v-49zM276 451v22l203 268v-47l-172 -229v-4l172 -230v-49z" />
<glyph unicode="&#xac;" horiz-adv-x="1116" d="M195 537v28h776v-311h-29v283h-747z" />
<glyph unicode="&#xad;" horiz-adv-x="575" d="M135 420v29h305v-29h-305z" />
<glyph unicode="&#xae;" horiz-adv-x="1501" d="M102 621q0 127 52 251q51 121 139 205q88 90 205 142q137 51 254 51q125 0 252 -51q117 -47 206 -142q90 -90 140 -205q51 -125 51 -251q0 -133 -51 -252q-47 -113 -140 -209q-94 -94 -206 -137q-123 -53 -252 -54q-121 0 -254 54q-113 45 -205 137q-90 90 -139 209 q-51 119 -52 252zM133 621q0 -135 47 -242q51 -117 135 -197q82 -86 195 -135q133 -47 241.5 -47t241.5 47q117 51 197 135q84 88 133 197q49 119 49 242q0 121 -49 239q-47 111 -133 199q-84 84 -197 131q-112 49 -241 49t-242 -49q-109 -45 -195 -131q-84 -84 -135 -199 q-47 -106 -47 -239zM535 244v749h266q45 0 82 -14q33 -14 67 -45q29 -29 47 -66q14 -37 15 -77q0 -45 -15 -80q-18 -37 -47 -66q-31 -27 -67 -43q-35 -14 -64 -16l244 -342h-37l-242 342h-221v-342h-28zM563 616h236q41 0 71 15q31 8 58 35q25 23 41 57q14 29 14 68 q0 37 -14 67q-18 35 -41 53q-23 23 -58 39q-35 14 -71 15h-236v-349z" />
<glyph unicode="&#xb0;" horiz-adv-x="718" d="M111 1020q0 53 20 96q18 41 53 80q35 35 78 53q43 21 98 21q53 0 97 -21q41 -18 80 -53q37 -37 51 -80q20 -43 20 -96t-20 -96q-14 -43 -51 -80q-33 -29 -80 -53q-43 -20 -97 -21q-55 0 -98 21q-47 20 -78 53q-35 35 -53 80q-20 43 -20 96zM141.5 1020q-0.5 -49 14.5 -86 q18 -39 49 -70q33 -33 69 -47q43 -16 86 -16q41 0 84 16q41 16 70 47q31 31 49 70q16 45 17 86q0 43 -17 86q-18 39 -49 70q-29 31 -70 47q-43 16 -84 16q-43 0 -86 -16q-37 -14 -69 -47q-29 -27 -49 -70q-14 -37 -14.5 -86z" />
<glyph unicode="&#xb1;" horiz-adv-x="1132" d="M141 483v29h410v338h31v-338h409v-29h-409v-338h-31v338h-410zM152 23v28h829v-28h-829z" />
<glyph unicode="&#xb4;" horiz-adv-x="466" d="M133 1327l221 250h41l-221 -250h-41z" />
<glyph unicode="&#xb6;" horiz-adv-x="985" d="M84 899q0 70 29 133q27 61 75 109q41 41 109 71q63 25 139 25h445v-29h-101v-1333h-30v1333h-236v-1333h-31v688h-47q-70 0 -139 27q-68 31 -109 72q-49 47 -75 108q-29 63 -29 129z" />
<glyph unicode="&#xb7;" horiz-adv-x="321" d="M145 385v129h31v-129h-31z" />
<glyph unicode="&#xb8;" horiz-adv-x="440" d="M102 -233h31q2 -10 10 -27q4 -12 19 -23q10 -10 26 -16q20 -4 33 -4q20 0 35 6q16 6 29 18q12 16 18 31q8 16 8 37q0 14 -6 31q-6 16 -14 26t-25 19q-8 4 -28 8q-18 4 -27 -2l-21 20l39 86h31l-33 -71l2 -2q10 0 27 -4q2 0 27 -11q18 -8 30 -24q12 -14 19 -35 q6 -18 6 -41q0 -29 -8 -47q-12 -29 -23 -41q-14 -14 -39 -25q-18 -8 -47 -8q-20 0 -43 6q-20 8 -35 21q-18 14 -26 31q-12 25 -15 41z" />
<glyph unicode="&#xba;" horiz-adv-x="788" d="M106 971q0 57 23 114.5t61 96.5q43 43 93 63q53 25 112 25t111 -25q49 -20 92 -63t64 -97q20 -70 20 -114q0 -47 -20 -117q-20 -53 -63.5 -96t-92.5 -64q-52 -24 -111 -24t-112 24q-49 20 -93 64q-39 39 -61 96q-23 55 -23 117zM137 971q0 -57 19 -107q23 -51 57 -86 q31 -33 82 -57q43 -21 100 -21q55 0 99 21q49 23 84 57q33 37 55 86q20 47 20 107q0 55 -20 102q-18 49 -55 86q-31 37 -84 60q-43 20 -99 20q-57 0 -100 -20q-51 -23 -82 -60q-35 -35 -57 -86q-18 -49 -19 -102z" />
<glyph unicode="&#xbb;" horiz-adv-x="655" d="M176 182v49l172 230v4l-172 229v47l203 -268v-22zM332 182v49l172 230v4l-172 229v47l203 -268v-22z" />
<glyph unicode="&#xbf;" horiz-adv-x="921" d="M106 358q0 39 19 99q39 72 49 86q4 6 27.5 32.5t34.5 40.5q49 45 69 66q10 8 26.5 27.5t22.5 25.5q29 41 39 62q8 18 21 55q8 27 8 59v62h29v-62q0 -35 -9 -65q-8 -35 -24 -62q-18 -41 -41 -65q-8 -10 -51 -60q-12 -10 -36 -32.5t-32 -30.5q-43 -45 -61 -72 q-35 -53 -45 -78q-14 -43 -15 -88q0 -72 25 -129q25 -59 71 -102q47 -47 105 -72q61 -25 131 -24q66 0 129 22q59 25 104 70q43 45 72 102q29 61 31 131h29q-2 -74 -33 -143q-29 -66 -78 -113q-53 -51 -115 -73q-61 -27 -139 -27q-76 0 -143 29q-63 25 -113 75 q-49 47 -78 113q-29 68 -29 141zM422 1139v131h29v-131h-29z" />
<glyph unicode="&#xc0;" d="M2 0l526 1237h43l512 -1237h-30l-170 412h-672l-176 -412h-33zM221 440h649l-317 768h-4zM391 1577h41l221 -250h-41z" />
<glyph unicode="&#xc1;" d="M2 0l526 1237h43l512 -1237h-30l-170 412h-672l-176 -412h-33zM221 440h649l-317 768h-4zM463 1327l221 250h41l-221 -250h-41z" />
<glyph unicode="&#xc2;" d="M2 0l526 1237h43l512 -1237h-30l-170 412h-672l-176 -412h-33zM221 440h649l-317 768h-4zM344 1335l188 242h31l195 -242h-37l-170 213h-2l-166 -213h-39z" />
<glyph unicode="&#xc3;" d="M2 0l526 1237h43l512 -1237h-30l-170 412h-672l-176 -412h-33zM221 440h649l-317 768h-4zM299 1397q31 41 57 61q33 20 72 21q51 0 137 -45q86 -39 123 -39q29 0 62 18q12 8 45 49l24 -16q-23 -33 -53 -55q-37 -27 -78 -27q-41 2 -137 43q-90 41 -123 41q-23 2 -55 -14 q-31 -23 -49 -54z" />
<glyph unicode="&#xc4;" d="M2 0l526 1237h43l512 -1237h-30l-170 412h-672l-176 -412h-33zM221 440h649l-317 768h-4zM426 1343v132h31v-132h-31zM645 1343v132h31v-132h-31z" />
<glyph unicode="&#xc5;" d="M2 0l526 1237h43l512 -1237h-30l-170 412h-672l-176 -412h-33zM221 440h649l-317 768h-4zM430 1415q0 29 8 47q10 23 29 39q17 21 37 29q18 8 47 8t47 -8t39 -29q14 -14 24.5 -38.5t10.5 -47.5q0 -20 -10 -45q-8 -18 -25 -39q-20 -16 -39 -24q-25 -10 -47.5 -10.5 t-46.5 10.5q-20 8 -37 24q-20 20 -28.5 39t-8.5 45zM461 1415q0 -18 6 -33q6 -14 18 -30q14 -14 31 -21q14 -6 35 -6q18 0 35 6q20 12 30 21q8 10 21 30q6 14 6 33q0 23 -6 37q-12 20 -21 31q-14 12 -30 18q-15 8 -35.5 8t-34.5 -8q-16 -6 -31 -18q-12 -16 -18 -30.5 t-6 -37.5z" />
<glyph unicode="&#xc7;" horiz-adv-x="1353" d="M92 621q0 125 49 251q49 123 135 205q86 92 199 142q123 51 242 51q117 0 244 -51q109 -49 198 -142q63 -68 103 -141h-31q-39 63 -92 123q-92 88 -191 131q-109 49 -231 49q-121 0 -232 -49q-111 -47 -188 -131q-84 -86 -129 -199q-45 -104 -45 -239q0 -133 45 -242 q45 -111 129 -197q74 -82 188 -135q131 -47 232 -47q104 0 231 47q102 47 191 135q47 49 88 117h33q-41 -76 -101 -137q-92 -94 -198 -139q-111 -51 -228 -54l-28 -63l4 -2q10 0 26 -4q8 -2 25 -11q18 -8 31 -24q14 -14 20 -35q6 -18 6 -41q0 -29 -8 -47q-10 -25 -25 -41 q-14 -14 -39 -25q-16 -8 -45 -8q-25 0 -45 6q-25 12 -34 21q-12 10 -27 31q-12 25 -14 41h30q2 -10 11 -27q8 -12 20 -23q10 -10 25 -16q20 -4 34 -4q16 0 33 6t29 18q8 10 20 31q6 18 6 37q0 14 -6 31q-2 10 -14 26q-8 12 -23 19q-12 4 -28 8q-20 4 -29 -2l-20 20l34 78 q-125 4 -227 54q-111 45 -199 139q-90 90 -135 207q-49 121 -49 252z" />
<glyph unicode="&#xc8;" horiz-adv-x="958" d="M172 0v1237h672v-29h-641v-549h598v-28h-598v-600h649v-31h-680zM350 1577h41l221 -250h-41z" />
<glyph unicode="&#xc9;" horiz-adv-x="958" d="M172 0v1237h672v-29h-641v-549h598v-28h-598v-600h649v-31h-680zM412 1327l221 250h41l-221 -250h-41z" />
<glyph unicode="&#xca;" horiz-adv-x="958" d="M172 0v1237h672v-29h-641v-549h598v-28h-598v-600h649v-31h-680zM305 1335l189 242h30l195 -242h-37l-170 213h-2l-166 -213h-39z" />
<glyph unicode="&#xcb;" horiz-adv-x="958" d="M172 0v1237h672v-29h-641v-549h598v-28h-598v-600h649v-31h-680zM387 1343v132h31v-132h-31zM606 1343v132h31v-132h-31z" />
<glyph unicode="&#xcc;" horiz-adv-x="374" d="M25 1577h41l221 -250h-41zM172 0v1237h31v-1237h-31z" />
<glyph unicode="&#xcd;" horiz-adv-x="374" d="M86 1327l221 250h41l-221 -250h-41zM172 0v1237h31v-1237h-31z" />
<glyph unicode="&#xce;" horiz-adv-x="374" d="M-20 1335l188 242h31l194 -242h-37l-170 213h-2l-166 -213h-38zM172 0v1237h31v-1237h-31z" />
<glyph unicode="&#xcf;" horiz-adv-x="374" d="M61 1343v132h31v-132h-31zM172 0v1237h31v-1237h-31zM281 1343v132h30v-132h-30z" />
<glyph unicode="&#xd0;" horiz-adv-x="1230" d="M45 618v29h127v590h428q131 0 229 -45q96 -41 162 -119q70 -82 109 -201q33 -141 33 -251q0 -137 -41 -254q-39 -111 -119 -199q-78 -82 -182 -123q-117 -43 -244 -43h-375v616h-127zM203 33h344q133 0 231 39q102 39 172 116q74 74 115 189q39 104 39 244q0 135 -33 241 q-41 121 -102 193q-59 72 -154 110q-92 41 -215 41h-397v-559h440v-29h-440v-585z" />
<glyph unicode="&#xd1;" horiz-adv-x="1286" d="M172 0v1237h47l860 -1206h4v1206h31v-1237h-47l-862 1208h-2v-1208h-31zM399 1397q31 41 58 61q33 20 71 21q51 0 138 -45q86 -39 122 -39q29 0 62 18q12 8 45 49l25 -16q-23 -33 -54 -55q-37 -27 -78 -27q-41 2 -137 43q-90 41 -123 41q-23 2 -55 -14q-31 -23 -49 -54z " />
<glyph unicode="&#xd2;" horiz-adv-x="1429" d="M90 621q0 125 49 251q49 123 135 205q86 92 199 142q123 51 242 51q117 0 243 -51q109 -49 199 -142q78 -78 133 -205q49 -119 49 -251q0 -137 -49 -252q-49 -121 -133 -207q-92 -94 -199 -139q-123 -53 -243.5 -53.5t-241.5 53.5q-111 45 -199 139q-90 90 -135 207 q-49 121 -49 252zM121 621q0 -133 45 -242q47 -111 129 -197q74 -82 188 -135q131 -47 232 -47q104 0 231 47q102 47 191 135q84 90 127 197q47 113 47 242t-47 239q-45 107 -127 199q-92 88 -191 131q-106 49 -231 49q-121 0 -232 -49q-111 -47 -188 -131 q-84 -86 -129 -199q-45 -104 -45 -239zM553 1577h41l221 -250h-41z" />
<glyph unicode="&#xd3;" horiz-adv-x="1429" d="M90 621q0 125 49 251q49 123 135 205q86 92 199 142q123 51 242 51q117 0 243 -51q109 -49 199 -142q78 -78 133 -205q49 -119 49 -251q0 -137 -49 -252q-49 -121 -133 -207q-92 -94 -199 -139q-123 -53 -243.5 -53.5t-241.5 53.5q-111 45 -199 139q-90 90 -135 207 q-49 121 -49 252zM121 621q0 -133 45 -242q47 -111 129 -197q74 -82 188 -135q131 -47 232 -47q104 0 231 47q102 47 191 135q84 90 127 197q47 113 47 242t-47 239q-45 107 -127 199q-92 88 -191 131q-106 49 -231 49q-121 0 -232 -49q-111 -47 -188 -131 q-84 -86 -129 -199q-45 -104 -45 -239zM614 1327l222 250h41l-222 -250h-41z" />
<glyph unicode="&#xd4;" horiz-adv-x="1429" d="M90 621q0 125 49 251q49 123 135 205q86 92 199 142q123 51 242 51q117 0 243 -51q109 -49 199 -142q78 -78 133 -205q49 -119 49 -251q0 -137 -49 -252q-49 -121 -133 -207q-92 -94 -199 -139q-123 -53 -243.5 -53.5t-241.5 53.5q-111 45 -199 139q-90 90 -135 207 q-49 121 -49 252zM121 621q0 -133 45 -242q47 -111 129 -197q74 -82 188 -135q131 -47 232 -47q104 0 231 47q102 47 191 135q84 90 127 197q47 113 47 242t-47 239q-45 107 -127 199q-92 88 -191 131q-106 49 -231 49q-121 0 -232 -49q-111 -47 -188 -131 q-84 -86 -129 -199q-45 -104 -45 -239zM508 1335l188 242h31l195 -242h-37l-170 213h-2l-166 -213h-39z" />
<glyph unicode="&#xd5;" horiz-adv-x="1429" d="M90 621q0 125 49 251q49 123 135 205q86 92 199 142q123 51 242 51q117 0 243 -51q109 -49 199 -142q78 -78 133 -205q49 -119 49 -251q0 -137 -49 -252q-49 -121 -133 -207q-92 -94 -199 -139q-123 -53 -243.5 -53.5t-241.5 53.5q-111 45 -199 139q-90 90 -135 207 q-49 121 -49 252zM121 621q0 -133 45 -242q47 -111 129 -197q74 -82 188 -135q131 -47 232 -47q104 0 231 47q102 47 191 135q84 90 127 197q47 113 47 242t-47 239q-45 107 -127 199q-92 88 -191 131q-106 49 -231 49q-121 0 -232 -49q-111 -47 -188 -131 q-84 -86 -129 -199q-45 -104 -45 -239zM471 1397q31 41 57 61q33 20 72 21q51 0 137 -45q86 -39 123 -39q29 0 62 18q12 8 45 49l24 -16q-23 -33 -53 -55q-37 -27 -78 -27q-41 2 -137 43q-90 41 -123 41q-23 2 -55 -14q-31 -23 -49 -54z" />
<glyph unicode="&#xd6;" horiz-adv-x="1429" d="M90 621q0 125 49 251q49 123 135 205q86 92 199 142q123 51 242 51q117 0 243 -51q109 -49 199 -142q78 -78 133 -205q49 -119 49 -251q0 -137 -49 -252q-49 -121 -133 -207q-92 -94 -199 -139q-123 -53 -243.5 -53.5t-241.5 53.5q-111 45 -199 139q-90 90 -135 207 q-49 121 -49 252zM121 621q0 -133 45 -242q47 -111 129 -197q74 -82 188 -135q131 -47 232 -47q104 0 231 47q102 47 191 135q84 90 127 197q47 113 47 242t-47 239q-45 107 -127 199q-92 88 -191 131q-106 49 -231 49q-121 0 -232 -49q-111 -47 -188 -131 q-84 -86 -129 -199q-45 -104 -45 -239zM590 1343v132h31v-132h-31zM809 1343v132h31v-132h-31z" />
<glyph unicode="&#xd7;" horiz-adv-x="1040" d="M121 43l379 393l-379 387l22 21l373 -385l383 385l21 -21l-381 -385l383 -395l-23 -18l-381 389l-375 -389z" />
<glyph unicode="&#xd8;" horiz-adv-x="1429" d="M90 621q0 125 49 251q49 123 135 205q86 92 199 142q123 51 242 51q117 0 243 -51q55 -25 119 -70l113 151l24 -16l-112 -154q39 -35 55 -53q78 -78 133 -205q49 -119 49 -251q0 -137 -49 -252q-49 -121 -133 -207q-92 -94 -199 -139q-123 -53 -243.5 -53.5t-241.5 53.5 q-72 29 -125 71l-110 -151l-23 16l111 154q-25 18 -52 49q-90 90 -135 207q-49 121 -49 252zM121 621q0 -133 45 -242q47 -111 129 -197q14 -18 47 -47l719 989q-45 33 -115 66q-106 49 -231 49q-121 0 -232 -49q-111 -47 -188 -131q-84 -86 -129 -199q-45 -104 -45 -239z M367 119q59 -45 116 -72q131 -47 232 -47q104 0 231 47q102 47 191 135q84 90 127 197q47 113 47 242t-47 239q-45 106 -127 199q-52 45 -54 47z" />
<glyph unicode="&#xd9;" horiz-adv-x="1097" d="M158 375v862h30v-862q0 -82 27 -150q29 -66 78 -119q53 -53 115 -79q63 -31 141 -31t141 31q63 27 113 79q53 53 80 119q29 82 28 150v862h29v-862q0 -78 -31 -160q-27 -72 -84 -129q-51 -55 -123 -86q-72 -33 -153.5 -33t-153.5 33q-72 31 -123 86q-57 57 -84 129 q-31 82 -30 160zM387 1577h41l221 -250h-41z" />
<glyph unicode="&#xda;" horiz-adv-x="1097" d="M158 375v862h30v-862q0 -82 27 -150q29 -66 78 -119q53 -53 115 -79q63 -31 141 -31t141 31q63 27 113 79q53 53 80 119q29 82 28 150v862h29v-862q0 -78 -31 -160q-27 -72 -84 -129q-51 -55 -123 -86q-72 -33 -153.5 -33t-153.5 33q-72 31 -123 86q-57 57 -84 129 q-31 82 -30 160zM449 1327l221 250h41l-222 -250h-40z" />
<glyph unicode="&#xdb;" horiz-adv-x="1097" d="M158 375v862h30v-862q0 -82 27 -150q29 -66 78 -119q53 -53 115 -79q63 -31 141 -31t141 31q63 27 113 79q53 53 80 119q29 82 28 150v862h29v-862q0 -78 -31 -160q-27 -72 -84 -129q-51 -55 -123 -86q-72 -33 -153.5 -33t-153.5 33q-72 31 -123 86q-57 57 -84 129 q-31 82 -30 160zM342 1335l188 242h31l195 -242h-37l-170 213h-2l-166 -213h-39z" />
<glyph unicode="&#xdc;" horiz-adv-x="1097" d="M158 375v862h30v-862q0 -82 27 -150q29 -66 78 -119q53 -53 115 -79q63 -31 141 -31t141 31q63 27 113 79q53 53 80 119q29 82 28 150v862h29v-862q0 -78 -31 -160q-27 -72 -84 -129q-51 -55 -123 -86q-72 -33 -153.5 -33t-153.5 33q-72 31 -123 86q-57 57 -84 129 q-31 82 -30 160zM424 1343v132h31v-132h-31zM643 1343v132h31v-132h-31z" />
<glyph unicode="&#xdd;" horiz-adv-x="874" d="M0 1237h35l399 -678h4l402 678h34l-421 -713v-524h-31v524zM336 1327l221 250h41l-221 -250h-41z" />
<glyph unicode="&#xde;" horiz-adv-x="946" d="M172 0v1237h31v-281h344q68 0 135 -26q68 -29 113 -72q47 -43 75 -108q27 -55 27 -132q0 -72 -27 -131q-27 -61 -75 -106q-49 -47 -113 -74q-70 -25 -135 -24h-344v-283h-31zM203 311h344q63 0 125 25q51 23 102 65q41 41 70 99q25 57 24 118q0 66 -24 119q-29 59 -70 99 q-49 45 -102 65q-61 25 -125 25h-344v-615z" />
<glyph unicode="&#xdf;" horiz-adv-x="2002" d="M86 319h31q0 -133 110 -223q109 -96 273 -96q166 0 274 96q113 92 113 223q0 127 -99 209q-88 57 -266 99q-190 39 -282 98q-121 78 -123 217q0 143 106 234q117 94 283 94q162 0 268 -94q104 -94 103 -234h-31q2 129 -92 211q-92 86 -248 86q-160 0 -264 -86 q-99 -86 -97 -211q0 -121 109 -192q92 -55 274 -95q176 -35 279 -104q109 -82 108 -232q0 -141 -120 -247q-129 -102 -295 -103q-172 0 -291 103q-123 106 -123 247zM1087 319h31q0 -133 110 -223q109 -96 273 -96q166 0 274 96q113 92 113 223q0 127 -99 209 q-88 57 -266 99q-190 39 -282 98q-121 78 -123 217q0 143 106 234q117 94 283 94q162 0 268 -94q104 -94 103 -234h-31q2 129 -92 211q-92 86 -248 86q-160 0 -264 -86q-99 -86 -97 -211q0 -121 109 -192q92 -55 274 -95q176 -35 279 -104q109 -82 108 -232 q0 -141 -120 -247q-129 -102 -295 -103q-172 0 -291 103q-123 106 -123 247z" />
<glyph unicode="&#xe0;" d="M2 0l526 1237h43l512 -1237h-30l-170 412h-672l-176 -412h-33zM221 440h649l-317 768h-4zM391 1577h41l221 -250h-41z" />
<glyph unicode="&#xe1;" d="M2 0l526 1237h43l512 -1237h-30l-170 412h-672l-176 -412h-33zM221 440h649l-317 768h-4zM463 1327l221 250h41l-221 -250h-41z" />
<glyph unicode="&#xe2;" d="M2 0l526 1237h43l512 -1237h-30l-170 412h-672l-176 -412h-33zM221 440h649l-317 768h-4zM344 1335l188 242h31l195 -242h-37l-170 213h-2l-166 -213h-39z" />
<glyph unicode="&#xe3;" d="M2 0l526 1237h43l512 -1237h-30l-170 412h-672l-176 -412h-33zM221 440h649l-317 768h-4zM299 1397q31 41 57 61q33 20 72 21q51 0 137 -45q86 -39 123 -39q29 0 62 18q12 8 45 49l24 -16q-23 -33 -53 -55q-37 -27 -78 -27q-41 2 -137 43q-90 41 -123 41q-23 2 -55 -14 q-31 -23 -49 -54z" />
<glyph unicode="&#xe4;" d="M2 0l526 1237h43l512 -1237h-30l-170 412h-672l-176 -412h-33zM221 440h649l-317 768h-4zM426 1343v132h31v-132h-31zM645 1343v132h31v-132h-31z" />
<glyph unicode="&#xe5;" d="M2 0l526 1237h43l512 -1237h-30l-170 412h-672l-176 -412h-33zM221 440h649l-317 768h-4zM430 1415q0 29 8 47q10 23 29 39q17 21 37 29q18 8 47 8t47 -8t39 -29q14 -14 24.5 -38.5t10.5 -47.5q0 -20 -10 -45q-8 -18 -25 -39q-20 -16 -39 -24q-25 -10 -47.5 -10.5 t-46.5 10.5q-20 8 -37 24q-20 20 -28.5 39t-8.5 45zM461 1415q0 -18 6 -33q6 -14 18 -30q14 -14 31 -21q14 -6 35 -6q18 0 35 6q20 12 30 21q8 10 21 30q6 14 6 33q0 23 -6 37q-12 20 -21 31q-14 12 -30 18q-15 8 -35.5 8t-34.5 -8q-16 -6 -31 -18q-12 -16 -18 -30.5 t-6 -37.5z" />
<glyph unicode="&#xe7;" horiz-adv-x="1353" d="M92 621q0 125 49 251q49 123 135 205q86 92 199 142q123 51 242 51q117 0 244 -51q109 -49 198 -142q63 -68 103 -141h-31q-39 63 -92 123q-92 88 -191 131q-109 49 -231 49q-121 0 -232 -49q-111 -47 -188 -131q-84 -86 -129 -199q-45 -104 -45 -239q0 -133 45 -242 q45 -111 129 -197q74 -82 188 -135q131 -47 232 -47q104 0 231 47q102 47 191 135q47 49 88 117h33q-41 -76 -101 -137q-92 -94 -198 -139q-111 -51 -228 -54l-28 -63l4 -2q10 0 26 -4q8 -2 25 -11q18 -8 31 -24q14 -14 20 -35q6 -18 6 -41q0 -29 -8 -47q-10 -25 -25 -41 q-14 -14 -39 -25q-16 -8 -45 -8q-25 0 -45 6q-25 12 -34 21q-12 10 -27 31q-12 25 -14 41h30q2 -10 11 -27q8 -12 20 -23q10 -10 25 -16q20 -4 34 -4q16 0 33 6t29 18q8 10 20 31q6 18 6 37q0 14 -6 31q-2 10 -14 26q-8 12 -23 19q-12 4 -28 8q-20 4 -29 -2l-20 20l34 78 q-125 4 -227 54q-111 45 -199 139q-90 90 -135 207q-49 121 -49 252z" />
<glyph unicode="&#xe8;" horiz-adv-x="958" d="M172 0v1237h672v-29h-641v-549h598v-28h-598v-600h649v-31h-680zM350 1577h41l221 -250h-41z" />
<glyph unicode="&#xe9;" horiz-adv-x="958" d="M172 0v1237h672v-29h-641v-549h598v-28h-598v-600h649v-31h-680zM412 1327l221 250h41l-221 -250h-41z" />
<glyph unicode="&#xea;" horiz-adv-x="958" d="M172 0v1237h672v-29h-641v-549h598v-28h-598v-600h649v-31h-680zM305 1335l189 242h30l195 -242h-37l-170 213h-2l-166 -213h-39z" />
<glyph unicode="&#xeb;" horiz-adv-x="958" d="M172 0v1237h672v-29h-641v-549h598v-28h-598v-600h649v-31h-680zM387 1343v132h31v-132h-31zM606 1343v132h31v-132h-31z" />
<glyph unicode="&#xec;" horiz-adv-x="374" d="M25 1577h41l221 -250h-41zM172 0v1237h31v-1237h-31z" />
<glyph unicode="&#xed;" horiz-adv-x="374" d="M86 1327l221 250h41l-221 -250h-41zM172 0v1237h31v-1237h-31z" />
<glyph unicode="&#xee;" horiz-adv-x="374" d="M-20 1335l188 242h31l194 -242h-37l-170 213h-2l-166 -213h-38zM172 0v1237h31v-1237h-31z" />
<glyph unicode="&#xef;" horiz-adv-x="374" d="M61 1343v132h31v-132h-31zM172 0v1237h31v-1237h-31zM281 1343v132h30v-132h-30z" />
<glyph unicode="&#xf0;" horiz-adv-x="1230" d="M45 618v29h127v590h428q131 0 229 -45q96 -41 162 -119q70 -82 109 -201q33 -141 33 -251q0 -137 -41 -254q-39 -111 -119 -199q-78 -82 -182 -123q-117 -43 -244 -43h-375v616h-127zM203 33h344q133 0 231 39q102 39 172 116q74 74 115 189q39 104 39 244q0 135 -33 241 q-41 121 -102 193q-59 72 -154 110q-92 41 -215 41h-397v-559h440v-29h-440v-585z" />
<glyph unicode="&#xf1;" horiz-adv-x="1286" d="M172 0v1237h47l860 -1206h4v1206h31v-1237h-47l-862 1208h-2v-1208h-31zM399 1397q31 41 58 61q33 20 71 21q51 0 138 -45q86 -39 122 -39q29 0 62 18q12 8 45 49l25 -16q-23 -33 -54 -55q-37 -27 -78 -27q-41 2 -137 43q-90 41 -123 41q-23 2 -55 -14q-31 -23 -49 -54z " />
<glyph unicode="&#xf2;" horiz-adv-x="1429" d="M90 621q0 125 49 251q49 123 135 205q86 92 199 142q123 51 242 51q117 0 243 -51q109 -49 199 -142q78 -78 133 -205q49 -119 49 -251q0 -137 -49 -252q-49 -121 -133 -207q-92 -94 -199 -139q-123 -53 -243.5 -53.5t-241.5 53.5q-111 45 -199 139q-90 90 -135 207 q-49 121 -49 252zM121 621q0 -133 45 -242q47 -111 129 -197q74 -82 188 -135q131 -47 232 -47q104 0 231 47q102 47 191 135q84 90 127 197q47 113 47 242t-47 239q-45 107 -127 199q-92 88 -191 131q-106 49 -231 49q-121 0 -232 -49q-111 -47 -188 -131 q-84 -86 -129 -199q-45 -104 -45 -239zM553 1577h41l221 -250h-41z" />
<glyph unicode="&#xf3;" horiz-adv-x="1429" d="M90 621q0 125 49 251q49 123 135 205q86 92 199 142q123 51 242 51q117 0 243 -51q109 -49 199 -142q78 -78 133 -205q49 -119 49 -251q0 -137 -49 -252q-49 -121 -133 -207q-92 -94 -199 -139q-123 -53 -243.5 -53.5t-241.5 53.5q-111 45 -199 139q-90 90 -135 207 q-49 121 -49 252zM121 621q0 -133 45 -242q47 -111 129 -197q74 -82 188 -135q131 -47 232 -47q104 0 231 47q102 47 191 135q84 90 127 197q47 113 47 242t-47 239q-45 107 -127 199q-92 88 -191 131q-106 49 -231 49q-121 0 -232 -49q-111 -47 -188 -131 q-84 -86 -129 -199q-45 -104 -45 -239zM614 1327l222 250h41l-222 -250h-41z" />
<glyph unicode="&#xf4;" horiz-adv-x="1429" d="M90 621q0 125 49 251q49 123 135 205q86 92 199 142q123 51 242 51q117 0 243 -51q109 -49 199 -142q78 -78 133 -205q49 -119 49 -251q0 -137 -49 -252q-49 -121 -133 -207q-92 -94 -199 -139q-123 -53 -243.5 -53.5t-241.5 53.5q-111 45 -199 139q-90 90 -135 207 q-49 121 -49 252zM121 621q0 -133 45 -242q47 -111 129 -197q74 -82 188 -135q131 -47 232 -47q104 0 231 47q102 47 191 135q84 90 127 197q47 113 47 242t-47 239q-45 107 -127 199q-92 88 -191 131q-106 49 -231 49q-121 0 -232 -49q-111 -47 -188 -131 q-84 -86 -129 -199q-45 -104 -45 -239zM508 1335l188 242h31l195 -242h-37l-170 213h-2l-166 -213h-39z" />
<glyph unicode="&#xf5;" horiz-adv-x="1429" d="M90 621q0 125 49 251q49 123 135 205q86 92 199 142q123 51 242 51q117 0 243 -51q109 -49 199 -142q78 -78 133 -205q49 -119 49 -251q0 -137 -49 -252q-49 -121 -133 -207q-92 -94 -199 -139q-123 -53 -243.5 -53.5t-241.5 53.5q-111 45 -199 139q-90 90 -135 207 q-49 121 -49 252zM121 621q0 -133 45 -242q47 -111 129 -197q74 -82 188 -135q131 -47 232 -47q104 0 231 47q102 47 191 135q84 90 127 197q47 113 47 242t-47 239q-45 107 -127 199q-92 88 -191 131q-106 49 -231 49q-121 0 -232 -49q-111 -47 -188 -131 q-84 -86 -129 -199q-45 -104 -45 -239zM471 1397q31 41 57 61q33 20 72 21q51 0 137 -45q86 -39 123 -39q29 0 62 18q12 8 45 49l24 -16q-23 -33 -53 -55q-37 -27 -78 -27q-41 2 -137 43q-90 41 -123 41q-23 2 -55 -14q-31 -23 -49 -54z" />
<glyph unicode="&#xf6;" horiz-adv-x="1429" d="M90 621q0 125 49 251q49 123 135 205q86 92 199 142q123 51 242 51q117 0 243 -51q109 -49 199 -142q78 -78 133 -205q49 -119 49 -251q0 -137 -49 -252q-49 -121 -133 -207q-92 -94 -199 -139q-123 -53 -243.5 -53.5t-241.5 53.5q-111 45 -199 139q-90 90 -135 207 q-49 121 -49 252zM121 621q0 -133 45 -242q47 -111 129 -197q74 -82 188 -135q131 -47 232 -47q104 0 231 47q102 47 191 135q84 90 127 197q47 113 47 242t-47 239q-45 107 -127 199q-92 88 -191 131q-106 49 -231 49q-121 0 -232 -49q-111 -47 -188 -131 q-84 -86 -129 -199q-45 -104 -45 -239zM590 1343v132h31v-132h-31zM809 1343v132h31v-132h-31z" />
<glyph unicode="&#xf7;" horiz-adv-x="1140" d="M145 420v29h850v-29h-850zM555 737v131h31v-131h-31zM559 0v129h31v-129h-31z" />
<glyph unicode="&#xf8;" horiz-adv-x="1429" d="M90 621q0 125 49 251q49 123 135 205q86 92 199 142q123 51 242 51q117 0 243 -51q55 -25 119 -70l113 151l24 -16l-112 -154q39 -35 55 -53q78 -78 133 -205q49 -119 49 -251q0 -137 -49 -252q-49 -121 -133 -207q-92 -94 -199 -139q-123 -53 -243.5 -53.5t-241.5 53.5 q-72 29 -125 71l-110 -151l-23 16l111 154q-25 18 -52 49q-90 90 -135 207q-49 121 -49 252zM121 621q0 -133 45 -242q47 -111 129 -197q14 -18 47 -47l719 989q-45 33 -115 66q-106 49 -231 49q-121 0 -232 -49q-111 -47 -188 -131q-84 -86 -129 -199q-45 -104 -45 -239z M367 119q59 -45 116 -72q131 -47 232 -47q104 0 231 47q102 47 191 135q84 90 127 197q47 113 47 242t-47 239q-45 106 -127 199q-52 45 -54 47z" />
<glyph unicode="&#xf9;" horiz-adv-x="1097" d="M158 375v862h30v-862q0 -82 27 -150q29 -66 78 -119q53 -53 115 -79q63 -31 141 -31t141 31q63 27 113 79q53 53 80 119q29 82 28 150v862h29v-862q0 -78 -31 -160q-27 -72 -84 -129q-51 -55 -123 -86q-72 -33 -153.5 -33t-153.5 33q-72 31 -123 86q-57 57 -84 129 q-31 82 -30 160zM387 1577h41l221 -250h-41z" />
<glyph unicode="&#xfa;" horiz-adv-x="1097" d="M158 375v862h30v-862q0 -82 27 -150q29 -66 78 -119q53 -53 115 -79q63 -31 141 -31t141 31q63 27 113 79q53 53 80 119q29 82 28 150v862h29v-862q0 -78 -31 -160q-27 -72 -84 -129q-51 -55 -123 -86q-72 -33 -153.5 -33t-153.5 33q-72 31 -123 86q-57 57 -84 129 q-31 82 -30 160zM449 1327l221 250h41l-222 -250h-40z" />
<glyph unicode="&#xfb;" horiz-adv-x="1097" d="M158 375v862h30v-862q0 -82 27 -150q29 -66 78 -119q53 -53 115 -79q63 -31 141 -31t141 31q63 27 113 79q53 53 80 119q29 82 28 150v862h29v-862q0 -78 -31 -160q-27 -72 -84 -129q-51 -55 -123 -86q-72 -33 -153.5 -33t-153.5 33q-72 31 -123 86q-57 57 -84 129 q-31 82 -30 160zM342 1335l188 242h31l195 -242h-37l-170 213h-2l-166 -213h-39z" />
<glyph unicode="&#xfc;" horiz-adv-x="1097" d="M158 375v862h30v-862q0 -82 27 -150q29 -66 78 -119q53 -53 115 -79q63 -31 141 -31t141 31q63 27 113 79q53 53 80 119q29 82 28 150v862h29v-862q0 -78 -31 -160q-27 -72 -84 -129q-51 -55 -123 -86q-72 -33 -153.5 -33t-153.5 33q-72 31 -123 86q-57 57 -84 129 q-31 82 -30 160zM424 1343v132h31v-132h-31zM643 1343v132h31v-132h-31z" />
<glyph unicode="&#xfd;" horiz-adv-x="874" d="M0 1237h35l399 -678h4l402 678h34l-421 -713v-524h-31v524zM336 1327l221 250h41l-221 -250h-41z" />
<glyph unicode="&#xfe;" horiz-adv-x="946" d="M172 0v1237h31v-281h344q68 0 135 -26q68 -29 113 -72q47 -43 75 -108q27 -55 27 -132q0 -72 -27 -131q-27 -61 -75 -106q-49 -47 -113 -74q-70 -25 -135 -24h-344v-283h-31zM203 311h344q63 0 125 25q51 23 102 65q41 41 70 99q25 57 24 118q0 66 -24 119q-29 59 -70 99 q-49 45 -102 65q-61 25 -125 25h-344v-615z" />
<glyph unicode="&#xff;" horiz-adv-x="874" d="M0 1237h35l399 -678h4l402 678h34l-421 -713v-524h-31v524zM311 1343v132h31v-132h-31zM530 1343v132h31v-132h-31z" />
<glyph unicode="&#x178;" horiz-adv-x="874" d="M0 1237h35l399 -678h4l402 678h34l-421 -713v-524h-31v524zM311 1343v132h31v-132h-31zM530 1343v132h31v-132h-31z" />
<glyph unicode="&#x2c6;" horiz-adv-x="618" d="M102 1335l189 242h31l194 -242h-37l-170 213h-2l-166 -213h-39z" />
<glyph unicode="&#x2dc;" horiz-adv-x="724" d="M119 1397q31 41 57 61q33 20 72 21q51 0 137 -45q86 -39 123 -39q29 0 61 18q12 8 45 49l25 -16q-23 -33 -53 -55q-37 -27 -78 -27q-41 2 -137 43q-90 41 -123 41q-23 2 -55 -14q-32 -23 -50 -54z" />
<glyph unicode="&#x2000;" horiz-adv-x="788" />
<glyph unicode="&#x2001;" horiz-adv-x="1577" />
<glyph unicode="&#x2002;" horiz-adv-x="788" />
<glyph unicode="&#x2003;" horiz-adv-x="1577" />
<glyph unicode="&#x2004;" horiz-adv-x="525" />
<glyph unicode="&#x2005;" horiz-adv-x="394" />
<glyph unicode="&#x2006;" horiz-adv-x="262" />
<glyph unicode="&#x2007;" horiz-adv-x="262" />
<glyph unicode="&#x2008;" horiz-adv-x="197" />
<glyph unicode="&#x2009;" horiz-adv-x="315" />
<glyph unicode="&#x200a;" horiz-adv-x="87" />
<glyph unicode="&#x2010;" horiz-adv-x="575" d="M135 420v29h305v-29h-305z" />
<glyph unicode="&#x2011;" horiz-adv-x="575" d="M135 420v29h305v-29h-305z" />
<glyph unicode="&#x2012;" horiz-adv-x="575" d="M135 420v29h305v-29h-305z" />
<glyph unicode="&#x2013;" horiz-adv-x="880" d="M135 420v29h610v-29h-610z" />
<glyph unicode="&#x2014;" horiz-adv-x="1368" d="M135 420v29h1098v-29h-1098z" />
<glyph unicode="&#x2018;" horiz-adv-x="366" d="M98 1237h29l111 -338h-33z" />
<glyph unicode="&#x2019;" horiz-adv-x="366" d="M129 899l108 338h31l-109 -338h-30z" />
<glyph unicode="&#x201a;" horiz-adv-x="436" d="M117 -186l108 338h31l-109 -338h-30z" />
<glyph unicode="&#x201c;" horiz-adv-x="544" d="M98 1237h29l111 -338h-33zM276 1237h31l109 -338h-31z" />
<glyph unicode="&#x201d;" horiz-adv-x="544" d="M129 899l108 338h31l-109 -338h-30zM307 899l111 338h28l-106 -338h-33z" />
<glyph unicode="&#x201e;" horiz-adv-x="614" d="M117 -186l108 338h31l-109 -338h-30zM295 -186l111 338h28l-106 -338h-33z" />
<glyph unicode="&#x2022;" horiz-adv-x="688" d="M125 618q0 43 18 87q12 35 45 69q29 29 70 45q41 19 84 19q47 0 86 -19q43 -16 72 -45q33 -35 45 -69q18 -43 18 -87q0 -45 -18 -83q-16 -41 -45 -70q-33 -33 -72 -47q-39 -18 -86 -19q-43 0 -84 19q-37 14 -70 47q-29 29 -45 70q-18 39 -18 83z" />
<glyph unicode="&#x202f;" horiz-adv-x="315" />
<glyph unicode="&#x2039;" horiz-adv-x="499" d="M121 451v22l203 268v-47l-172 -229v-4l172 -230v-49z" />
<glyph unicode="&#x203a;" horiz-adv-x="499" d="M176 182v49l172 230v4l-172 229v47l203 -268v-22z" />
<glyph unicode="&#x205f;" horiz-adv-x="394" />
<glyph unicode="&#x20ac;" horiz-adv-x="1376" d="M88 489l14 31h117q-6 49 -6 101q0 27 4 84h-129l14 28h119q12 72 41 139q49 121 133 205q90 92 199 142q123 51 244 51q119 0 241 -51q80 -35 154 -97l-12 -28q-76 63 -152 96q-109 49 -231 49q-125 0 -232 -49q-104 -45 -190 -131q-80 -84 -127 -199q-25 -57 -37 -127 h807l-12 -28h-799q-6 -39 -6 -84q0 -57 8 -101h713l-13 -31h-696q10 -53 35 -110q47 -115 127 -197q84 -86 190 -135q127 -47 231.5 -47t231.5 47q115 55 182 129v-43q-76 -72 -172 -110q-121 -53 -241 -54q-125 0 -244 54q-106 45 -199 139q-88 92 -133 207q-25 53 -39 120 h-135z" />
<glyph unicode="&#x2122;" horiz-adv-x="1642" d="M127 1210v29h436v-29h-205v-686h-28v686h-203zM721 528v709h49l326 -668h4l321 668h52v-709h-29v680h-2l-332 -680h-27l-329 680h-4v-680h-29z" />
</font>
</defs>
</svg>
